<?xml version="1.0" encoding="UTF-8"?>
<svg xmlns="http://www.w3.org/2000/svg" xmlns:xlink="http://www.w3.org/1999/xlink" width="80pt" height="80pt" viewBox="0 0 80 80" version="1.1">
<g id="surface8614849">
<path style=" stroke:none;fill-rule:nonzero;fill:rgb(18.431373%,20.392157%,22.745098%);fill-opacity:1;" d="M 4.5 4.5 L 75.5 4.5 L 75.5 75.5 L 4.5 75.5 Z M 4.5 4.5 "/>
<path style=" stroke:none;fill-rule:nonzero;fill:rgb(71.372549%,85.490196%,51.764706%);fill-opacity:1;" d="M 75 5 L 75 75 L 5 75 L 5 5 L 75 5 M 76 4 L 4 4 L 4 76 L 76 76 Z M 76 4 "/>
<path style=" stroke:none;fill-rule:nonzero;fill:rgb(71.372549%,85.490196%,51.764706%);fill-opacity:1;" d="M 4.5 4.5 L 75.5 4.5 L 75.5 15.5 L 4.5 15.5 Z M 4.5 4.5 "/>
<path style=" stroke:none;fill-rule:nonzero;fill:rgb(71.372549%,85.490196%,51.764706%);fill-opacity:1;" d="M 75 5 L 75 15 L 5 15 L 5 5 L 75 5 M 76 4 L 4 4 L 4 16 L 76 16 Z M 76 4 "/>
<path style=" stroke:none;fill-rule:nonzero;fill:rgb(71.372549%,85.490196%,51.764706%);fill-opacity:1;" d="M 26 28 L 30 28 L 30 32 L 26 32 Z M 42 28 L 46 28 L 46 32 L 42 32 Z M 50 28 L 54 28 L 54 32 L 50 32 Z M 58 28 L 62 28 L 62 32 L 58 32 Z M 18 36 L 22 36 L 22 40 L 18 40 Z M 26 36 L 30 36 L 30 40 L 26 40 Z M 42 36 L 46 36 L 46 40 L 42 40 Z M 50 36 L 54 36 L 54 40 L 50 40 Z M 58 36 L 62 36 L 62 40 L 58 40 Z M 18 52 L 22 52 L 22 56 L 18 56 Z M 26 52 L 30 52 L 30 56 L 26 56 Z M 42 52 L 46 52 L 46 56 L 42 56 Z M 34 28 L 38 28 L 38 32 L 34 32 Z M 34 36 L 38 36 L 38 40 L 34 40 Z M 18 44 L 22 44 L 22 48 L 18 48 Z M 26 44 L 30 44 L 30 48 L 26 48 Z M 42 44 L 46 44 L 46 48 L 42 48 Z M 50 44 L 54 44 L 54 48 L 50 48 Z M 58 44 L 62 44 L 62 48 L 58 48 Z M 34 44 L 38 44 L 38 48 L 34 48 Z M 34 52 L 38 52 L 38 56 L 34 56 Z M 50 52 L 54 52 L 54 56 L 50 56 Z M 50 52 "/>
<path style=" stroke:none;fill-rule:nonzero;fill:rgb(18.431373%,20.392157%,22.745098%);fill-opacity:1;" d="M 5 70 L 75 70 L 75 75 L 5 75 Z M 5 70 "/>
</g>
</svg>
